<svg width="40" height="39" viewBox="0 0 40 39" fill="none" xmlns="http://www.w3.org/2000/svg">
<path d="M8.6955 11.2628C8.6955 10.3051 9.4719 9.52866 10.4296 9.52866H24.3028C25.7394 9.52866 26.904 10.6933 26.904 12.1299V23.4018H8.6955V11.2628Z" fill="#FFC600"/>
<path d="M33.1106 25.7443C32.5561 25.7443 32.1142 26.187 32.1058 26.7429C32.1058 27.2981 32.5477 27.7407 33.1022 27.7498C33.6567 27.7575 34.0987 27.3065 34.1078 26.7513C34.1078 26.1961 33.6658 25.7534 33.1106 25.7443ZM14.7805 25.7185C14.2259 25.7185 13.7833 26.1611 13.7749 26.7163C13.7749 27.2722 14.2169 27.7141 14.7714 27.7232C15.3266 27.7232 15.7685 27.2806 15.7769 26.7254C15.7778 26.5938 15.7527 26.4633 15.7031 26.3414C15.6535 26.2195 15.5803 26.1086 15.4877 26.015C15.3952 25.9215 15.285 25.8471 15.1637 25.7962C15.0423 25.7454 14.9121 25.7189 14.7805 25.7185ZM32.547 16.7897H31.3772C31.2968 16.7891 31.2171 16.8043 31.1426 16.8346C31.0681 16.8648 31.0003 16.9095 30.9431 16.966C30.8859 17.0226 30.8405 17.0898 30.8094 17.164C30.7783 17.2381 30.7621 17.3177 30.7618 17.3981L30.7535 21.6845C30.7535 22.0222 31.022 22.2998 31.3597 22.2998L35.4769 22.3089C35.6631 22.3095 35.8462 22.2609 36.0076 22.168C36.1689 22.075 36.3028 21.941 36.3957 21.7796C36.4886 21.6189 36.5383 21.4369 36.5397 21.2514C36.5412 21.0658 36.4945 20.883 36.4041 20.7209L34.9825 18.2218C34.7391 17.7896 34.3856 17.4294 33.958 17.1779C33.5304 16.9264 33.0431 16.7925 32.547 16.7897ZM31.9841 21.0761L31.9925 18.0134H32.5477C33.1197 18.0134 33.6393 18.326 33.9253 18.812L35.2084 21.0761H31.9841ZM15.751 14.6472C15.751 15.0982 15.3874 15.4625 14.9364 15.4534H14.928C14.8214 15.4534 14.7158 15.4321 14.6175 15.391C14.5191 15.3499 14.4298 15.2897 14.3549 15.2139C14.2799 15.1381 14.2207 15.0482 14.1807 14.9493C14.1407 14.8505 14.1206 14.7447 14.1218 14.6381C14.1218 14.1871 14.4854 13.8228 14.9364 13.8312C15.1521 13.8327 15.3586 13.919 15.511 14.0717C15.6635 14.2243 15.7497 14.4315 15.751 14.6472ZM13.047 18.161L4.02456 18.1435C3.92769 18.1436 3.83175 18.1245 3.74225 18.0875C3.65274 18.0504 3.57143 17.9961 3.50296 17.9276C3.4345 17.859 3.38023 17.7777 3.34326 17.6881C3.3063 17.5986 3.28737 17.5026 3.28755 17.4058C3.28755 16.9981 3.6169 16.6687 4.02456 16.6687L13.047 16.6855C13.454 16.6855 13.7833 17.0156 13.7833 17.4232C13.7824 17.6184 13.7046 17.8053 13.5667 17.9434C13.4289 18.0815 13.2421 18.1597 13.047 18.161ZM9.98778 21.0677L0.965335 21.0503C0.868406 21.0504 0.772394 21.0315 0.682807 20.9945C0.593221 20.9575 0.511823 20.9031 0.443284 20.8346C0.374744 20.7661 0.320412 20.6847 0.283404 20.5951C0.246396 20.5055 0.22744 20.4095 0.227624 20.3125C0.227624 19.9049 0.556972 19.5755 0.964636 19.5755L9.98708 19.5923C10.394 19.5923 10.7234 19.9224 10.7234 20.33C10.7234 20.7377 10.3947 21.0677 9.98708 21.0677H9.98778ZM12.3275 15.2458L0.817793 15.2283C0.720922 15.2284 0.624986 15.2094 0.53548 15.1723C0.445974 15.1353 0.364659 15.0809 0.296194 15.0124C0.227729 14.9439 0.173459 14.8625 0.136494 14.7729C0.09953 14.6834 0.0805973 14.5874 0.0807814 14.4906C0.0807814 14.0829 0.410129 13.7529 0.817793 13.7529L12.3275 13.7703C12.7344 13.7703 13.0638 14.0997 13.0638 14.5081C13.0638 14.9157 12.7351 15.2458 12.3275 15.2458Z" fill="black"/>
<path d="M39.0919 19.6965L37.1501 16.7121C36.7151 16.0445 36.1201 15.4963 35.4193 15.1174C34.7184 14.7384 33.9339 14.5407 33.1371 14.5423L28.2319 14.5339L28.2403 11.7579C28.2403 9.90904 26.7495 8.40845 24.9034 8.40845L10.5506 8.38188H10.5422C10.1039 8.38066 9.66973 8.46671 9.26503 8.63503C8.86033 8.80334 8.49319 9.05055 8.18502 9.36223C7.87339 9.67113 7.6263 10.0389 7.45812 10.4442C7.28993 10.8495 7.20402 11.2841 7.20537 11.7229L7.18789 23.3668C6.6404 23.6239 6.17713 24.0311 5.85195 24.5411C5.52677 25.0511 5.35304 25.6429 5.35095 26.2478V26.8554C5.35095 27.1155 5.46283 27.3155 5.68869 27.4456C5.90546 27.5756 6.15719 27.5924 6.28655 27.5924L11.4093 27.6015C11.6025 28.3528 12.0405 29.0184 12.6541 29.493C13.2678 29.9676 14.0221 30.2242 14.7978 30.2223H14.8062C15.581 30.2248 16.3346 29.9695 16.9482 29.4965C17.5619 29.0235 18.0007 28.3598 18.1955 27.6099L29.7485 27.6274C29.9417 28.3787 30.3798 29.0442 30.9934 29.5189C31.6071 29.9935 32.3614 30.2501 33.1371 30.2482H33.1455C33.9202 30.2509 34.6738 29.9957 35.2875 29.5228C35.9011 29.0499 36.3399 28.3863 36.5348 27.6365H38.4934C38.9011 27.6365 39.2304 27.3064 39.2304 26.8988L39.2388 20.0874C39.2145 19.9491 39.1647 19.8165 39.0919 19.6965ZM37.7305 20.3216L37.7221 26.1701H36.569C36.2921 24.4954 34.8279 23.2459 33.1196 23.2368H33.1112C32.2853 23.24 31.4869 23.534 30.8561 24.0672C30.2253 24.6004 29.8025 25.3388 29.6618 26.1527H28.2046L28.2221 16.0093L33.128 16.0177C34.2545 16.0177 35.2943 16.582 35.9013 17.519L37.7305 20.3216ZM34.5419 28.1833C34.3542 28.3711 34.1311 28.5199 33.8855 28.6211C33.64 28.7222 33.3768 28.7738 33.1112 28.7728C32.8451 28.7729 32.5816 28.7203 32.3359 28.6182C32.0902 28.5161 31.867 28.3664 31.6794 28.1778C31.4917 27.9891 31.3432 27.7652 31.2423 27.519C31.1415 27.2727 31.0903 27.0089 31.0918 26.7428C31.0918 26.2044 31.3086 25.6926 31.6897 25.3108C31.8761 25.1213 32.0988 24.9713 32.3445 24.8699C32.5902 24.7685 32.8538 24.7177 33.1196 24.7206C33.6574 24.7206 34.1685 24.9374 34.5496 25.3192C34.9314 25.7016 35.1391 26.2135 35.1391 26.7512C35.1391 27.298 34.9223 27.8015 34.5412 28.1826L34.5419 28.1833ZM12.0239 24.5472C11.6644 25.0049 11.4234 25.5444 11.3226 26.1177L6.81518 26.1093C6.8519 25.6814 7.0476 25.2828 7.36369 24.9921C7.67977 24.7014 8.09331 24.5397 8.52276 24.5388L12.0239 24.5472ZM8.671 13.6053V11.7229C8.67284 11.2314 8.86871 10.7605 9.21601 10.4127C9.5633 10.0649 10.0339 9.86827 10.5254 9.86569L24.8783 9.89156C25.9006 9.89156 26.7327 10.7335 26.7327 11.7572L26.7159 23.0983L8.64513 23.0634L8.66191 13.7444L8.671 13.6053ZM14.7811 28.7469C14.2431 28.7458 13.7275 28.5314 13.3474 28.1507C12.9673 27.7701 12.7536 27.2542 12.7532 26.7163C12.7532 26.1785 12.97 25.6667 13.3511 25.2849C13.5393 25.0974 13.7626 24.9489 14.0083 24.8478C14.254 24.7467 14.5172 24.6951 14.7828 24.6959C15.0485 24.6967 15.3113 24.7498 15.5564 24.8523C15.8015 24.9548 16.0239 25.1047 16.211 25.2933C16.5928 25.6751 16.8005 26.1869 16.8005 26.7254C16.8001 27.261 16.5873 27.7747 16.2087 28.1536C15.8302 28.5326 15.3167 28.746 14.7811 28.7469ZM26.7243 24.5731V26.1527L18.2396 26.1352C18.1433 25.5591 17.9049 25.0162 17.5459 24.5556L26.7243 24.5731Z" fill="black"/>
</svg>
