<svg width="40" height="39" viewBox="0 0 40 39" fill="none" xmlns="http://www.w3.org/2000/svg">
<circle cx="20.0166" cy="19.9335" r="7.80365" fill="#FFC600"/>
<path d="M22.8752 17.1155L18.6175 21.1341L16.5743 19.0336C16.4642 18.9276 16.3173 18.8685 16.1645 18.8688C16.0117 18.8692 15.865 18.9289 15.7555 19.0354C15.6459 19.1419 15.582 19.2868 15.5773 19.4395C15.5726 19.5922 15.6275 19.7408 15.7303 19.8538L18.1805 22.3683C18.29 22.4785 18.438 22.5419 18.5933 22.5451C18.7487 22.5484 18.8992 22.4913 19.0133 22.3858L23.6962 17.9707C23.7525 17.9177 23.7978 17.8541 23.8295 17.7836C23.8612 17.713 23.8787 17.6369 23.8809 17.5596C23.8831 17.4823 23.87 17.4053 23.8424 17.333C23.8148 17.2608 23.7732 17.1947 23.7199 17.1386C23.6104 17.0247 23.4604 16.9584 23.3024 16.9539C23.1444 16.9495 22.991 17.008 22.8752 17.1155Z" fill="black" stroke="black" stroke-opacity="0.5" stroke-width="0.419551"/>
<path d="M19.7159 10.9293C14.8498 10.9293 10.8934 14.8842 10.8934 19.7468C10.8934 24.6108 14.8498 28.5651 19.7159 28.5651C24.5827 28.5651 28.5383 24.6108 28.5383 19.7475C28.5383 14.8842 24.582 10.93 19.7159 10.93V10.9293ZM19.7159 27.3848C15.4994 27.3848 12.0745 23.9556 12.0745 19.7475C12.0745 15.5387 15.4994 12.1096 19.7159 12.1096C23.9366 12.1096 27.3573 15.5289 27.3573 19.7475C27.3573 23.9654 23.9366 27.3848 19.7159 27.3848Z" fill="black" stroke="black" stroke-opacity="0.5" stroke-width="0.419551"/>
<path d="M31.8578 16.5009L32.0521 13.0012C32.0588 12.8862 32.0317 12.7718 31.974 12.6721C31.9163 12.5724 31.8307 12.4919 31.7277 12.4404L28.609 10.8642L27.0329 7.74768C26.9804 7.64554 26.8996 7.56066 26.8001 7.50313C26.7007 7.44561 26.5869 7.41787 26.4721 7.42323L22.964 7.61203L20.0411 5.68209C19.9446 5.6184 19.8316 5.58444 19.7159 5.58444C19.6003 5.58444 19.4873 5.6184 19.3908 5.68209L16.4679 7.61203L12.9668 7.41763C12.8517 7.41071 12.7371 7.43778 12.6373 7.49547C12.5374 7.55315 12.4568 7.63892 12.4053 7.74209L10.8285 10.8587L7.7105 12.4348C7.60824 12.4872 7.52326 12.5679 7.46572 12.6674C7.40818 12.7669 7.38052 12.8808 7.38605 12.9956L7.58044 16.4953L5.6498 19.4168C5.58617 19.5132 5.55225 19.6261 5.55225 19.7416C5.55225 19.8571 5.58617 19.97 5.6498 20.0664L7.57484 22.9935L7.37975 26.4932C7.37303 26.6083 7.40027 26.7228 7.45808 26.8225C7.51589 26.9222 7.60172 27.0027 7.7049 27.054L10.8229 28.6301L12.3997 31.7467C12.5067 31.9551 12.7255 32.0823 12.9605 32.0711L16.4623 31.8761L19.3852 33.806C19.581 33.9403 19.8397 33.9403 20.0355 33.806L22.9584 31.8761L26.4602 32.0711C26.5752 32.0777 26.6895 32.0505 26.7892 31.9929C26.8889 31.9352 26.9695 31.8496 27.021 31.7467L28.5978 28.6301L31.7158 27.054C31.818 27.0015 31.9029 26.9208 31.9605 26.8213C32.018 26.7219 32.0457 26.608 32.0403 26.4932L31.8459 22.9935L33.7765 20.072C33.8401 19.9756 33.8741 19.8627 33.8741 19.7472C33.8741 19.6317 33.8401 19.5188 33.7765 19.4224L31.8578 16.5009ZM30.7592 22.5096C30.6872 22.6151 30.6538 22.7424 30.6648 22.8697L30.8473 26.1807L27.9007 27.668C27.7884 27.7244 27.6974 27.8157 27.6413 27.9281L26.1526 30.8726L22.8402 30.6901C22.7135 30.6855 22.5883 30.7184 22.4801 30.7845L19.7159 32.6082L16.9525 30.7845C16.8564 30.7197 16.7433 30.6849 16.6274 30.6845H16.598L13.2849 30.867L11.7969 27.9218C11.7408 27.8095 11.6498 27.7185 11.5375 27.6624L8.58456 26.1807L8.76777 22.8697C8.77219 22.7429 8.73911 22.6177 8.67267 22.5096L6.84832 19.7475L8.67337 16.9855C8.74555 16.88 8.77891 16.7527 8.76777 16.6254L8.58456 13.3137L11.5312 11.8264C11.6431 11.7705 11.7347 11.6796 11.7913 11.567L13.2793 8.62175L16.5924 8.80495C16.7183 8.80914 16.8441 8.77628 16.9525 8.70985L19.7159 6.8862L22.4794 8.70985C22.585 8.78233 22.7126 8.81594 22.8402 8.80495L26.1526 8.62175L27.6413 11.567C27.6972 11.6789 27.7881 11.7698 27.9007 11.8264L30.8473 13.3137L30.6648 16.6254C30.6599 16.7512 30.6928 16.8771 30.7592 16.9848L32.5843 19.7468L30.7592 22.5096Z" fill="black" stroke="black" stroke-opacity="0.5" stroke-width="0.419551"/>
</svg>
