<svg width="40" height="39" viewBox="0 0 40 39" fill="none" xmlns="http://www.w3.org/2000/svg">
<path d="M14.0678 22.8402C14.0022 21.5281 15.3628 20.6224 16.548 21.1892L22.4149 23.9951C23.3186 24.4273 23.8938 25.34 23.8938 26.3418V33.3732L14.356 28.6043L14.0678 22.8402Z" fill="#FFC600"/>
<path fill-rule="evenodd" clip-rule="evenodd" d="M11.2793 9.94684C10.9241 10.3035 10.5969 10.6762 10.2983 11.0642C10.2423 11.137 10.1725 11.198 10.0929 11.2438C10.0133 11.2896 9.92544 11.3193 9.83438 11.3312C9.65046 11.3551 9.46457 11.305 9.3176 11.1919C9.17063 11.0787 9.07461 10.9119 9.05068 10.7279C9.02675 10.544 9.07686 10.3581 9.18998 10.2112C9.52962 9.77011 9.8975 9.35154 10.2913 8.9581C10.4232 8.83072 10.5998 8.76024 10.7832 8.76184C10.9665 8.76343 11.1419 8.83697 11.2715 8.96662C11.4012 9.09626 11.4747 9.27164 11.4763 9.45499C11.4779 9.63833 11.4074 9.81496 11.28 9.94684H11.2793ZM8.43689 12.7173C8.60823 12.7881 8.74441 12.9242 8.81548 13.0954C8.88655 13.2667 8.8867 13.4591 8.81588 13.6305C8.43339 14.5535 8.17817 15.5185 8.0502 16.4953C8.03871 16.5868 8.00926 16.675 7.96355 16.755C7.91784 16.835 7.85677 16.9052 7.78385 16.9615C7.71093 17.0178 7.6276 17.0592 7.53864 17.0832C7.44969 17.1072 7.35687 17.1134 7.26551 17.1014C7.17416 17.0894 7.08607 17.0595 7.00631 17.0134C6.92656 16.9672 6.8567 16.9058 6.80077 16.8326C6.74483 16.7594 6.70392 16.6758 6.68038 16.5868C6.65683 16.4977 6.65113 16.4048 6.66359 16.3135C6.80763 15.2164 7.09363 14.134 7.52367 13.0956C7.59467 12.9244 7.73074 12.7883 7.90198 12.7174C8.07322 12.6465 8.26562 12.6464 8.43689 12.7173ZM7.26634 18.8595C7.45022 18.8355 7.6361 18.8855 7.78309 18.9986C7.93009 19.1116 8.02617 19.2784 8.0502 19.4623C8.179 20.4466 8.43643 21.4098 8.81588 22.3271C8.88682 22.4985 8.88674 22.6912 8.81567 22.8625C8.74459 23.0339 8.60834 23.1701 8.43689 23.241C8.26544 23.3119 8.07283 23.3119 7.90144 23.2408C7.73004 23.1697 7.5939 23.0335 7.52297 22.862C7.09697 21.8316 6.80804 20.7497 6.66359 19.6441C6.6516 19.553 6.65769 19.4604 6.68151 19.3717C6.70532 19.2829 6.74639 19.1997 6.80237 19.1269C6.85835 19.054 6.92814 18.9929 7.00775 18.947C7.08736 18.9011 7.17523 18.8714 7.26634 18.8595ZM9.31865 24.7654C9.46563 24.6524 9.65148 24.6024 9.83532 24.6264C10.0192 24.6504 10.1859 24.7464 10.299 24.8933C10.5976 25.2814 10.9248 25.6555 11.2807 26.0114C11.3475 26.076 11.4008 26.1531 11.4374 26.2384C11.4741 26.3237 11.4934 26.4155 11.4942 26.5083C11.495 26.6012 11.4773 26.6933 11.4422 26.7792C11.407 26.8651 11.3551 26.9432 11.2894 27.0089C11.2238 27.0745 11.1457 27.1264 11.0598 27.1616C10.9738 27.1968 10.8817 27.2144 10.7889 27.2136C10.696 27.2128 10.6043 27.1935 10.519 27.1569C10.4337 27.1202 10.3565 27.067 10.292 27.0002C9.8982 26.6065 9.53032 26.1877 9.19068 25.7464C9.13463 25.6736 9.09347 25.5905 9.06956 25.5018C9.04565 25.4131 9.03946 25.3205 9.05135 25.2294C9.06323 25.1383 9.09296 25.0504 9.13882 24.9708C9.18469 24.8912 9.24579 24.8214 9.31865 24.7654Z" fill="black"/>
<path fill-rule="evenodd" clip-rule="evenodd" d="M10.2912 9.94683C10.1601 9.8157 10.0865 9.63788 10.0865 9.45246C10.0865 9.26705 10.1601 9.08922 10.2912 8.95809C15.2734 3.97592 23.3511 3.97592 28.3333 8.95809C28.4644 9.0893 28.538 9.26722 28.538 9.45271C28.5379 9.6382 28.4642 9.81607 28.333 9.94718C28.2018 10.0783 28.0238 10.1519 27.8383 10.1519C27.6529 10.1518 27.475 10.078 27.3439 9.94683C22.9078 5.51078 15.7153 5.51078 11.28 9.94683C11.1488 10.0779 10.971 10.1516 10.7856 10.1516C10.6002 10.1516 10.4223 10.0779 10.2912 9.94683Z" fill="black"/>
<path fill-rule="evenodd" clip-rule="evenodd" d="M29.5298 10.4797C29.5298 10.6651 29.4561 10.843 29.325 10.9741C29.1938 11.1053 29.016 11.1789 28.8305 11.1789H23.9358C23.7503 11.1789 23.5725 11.1053 23.4413 10.9741C23.3102 10.843 23.2365 10.6651 23.2365 10.4797C23.2365 10.2942 23.3102 10.1164 23.4413 9.98523C23.5725 9.8541 23.7503 9.78043 23.9358 9.78043H28.8305C29.016 9.78043 29.1938 9.8541 29.325 9.98523C29.4561 10.1164 29.5298 10.2942 29.5298 10.4797Z" fill="black"/>
<path fill-rule="evenodd" clip-rule="evenodd" d="M28.8305 11.1789C28.6451 11.1789 28.4672 11.1052 28.3361 10.9741C28.2049 10.843 28.1313 10.6651 28.1313 10.4797V5.5849C28.1313 5.39945 28.2049 5.22159 28.3361 5.09046C28.4672 4.95932 28.6451 4.88565 28.8305 4.88565C29.016 4.88565 29.1938 4.95932 29.3249 5.09046C29.4561 5.22159 29.5298 5.39945 29.5298 5.5849V10.4797C29.5298 10.6651 29.4561 10.843 29.3249 10.9741C29.1938 11.1052 29.016 11.1789 28.8305 11.1789ZM18.6543 16.1478L28.4438 21.0426L28.4193 21.0915L32.7127 18.9448L33.3386 20.1951L23.8616 24.9339C23.6675 25.0309 23.4535 25.0814 23.2365 25.0814C23.0195 25.0814 22.8055 25.0309 22.6114 24.9339L13.1344 20.1951L13.7595 18.9448L23.2365 23.6829L26.9173 21.8425L18.0292 17.3981L18.6543 16.1478Z" fill="black"/>
<path fill-rule="evenodd" clip-rule="evenodd" d="M22.5876 13.5263C22.7878 13.4214 23.0105 13.3666 23.2365 13.3666C23.4625 13.3666 23.6852 13.4214 23.8854 13.5263L32.9757 18.2882C33.2017 18.4066 33.3911 18.5846 33.5232 18.8029C33.6553 19.0211 33.7252 19.2714 33.7253 19.5266V28.0043C33.7252 28.2595 33.6553 28.5097 33.5232 28.728C33.3911 28.9463 33.2017 29.1243 32.9757 29.2427L23.8854 34.0046C23.6852 34.1095 23.4625 34.1642 23.2365 34.1642C23.0105 34.1642 22.7878 34.1095 22.5876 34.0046L13.4973 29.2427C13.2713 29.1243 13.082 28.9463 12.9498 28.728C12.8177 28.5097 12.7478 28.2595 12.7477 28.0043V19.5266C12.7478 19.2714 12.8177 19.0211 12.9498 18.8029C13.082 18.5846 13.2713 18.4066 13.4973 18.2882L22.5876 13.5263ZM23.2365 14.7661L14.1462 19.528V28.005L23.2365 32.7669L32.3268 28.005V19.5266L23.2365 14.7647V14.7661Z" fill="black"/>
<path fill-rule="evenodd" clip-rule="evenodd" d="M22.5372 32.8557V24.4647H23.9357V32.8557H22.5372Z" fill="black"/>
</svg>
