<svg width="230" height="44" fill="none" xmlns="http://www.w3.org/2000/svg"><path d="M3.327 21.624v17.635l17.839-17.635H3.327zM40.03 2.973H3.327v15.886h20.285L40.03 2.973zM25.341 40.969h16.42V4.683L25.34 20.916v20.053zm-2.446 0V23.334L5.056 40.969h17.839z" fill="#97D700"/><path d="M.883 21.971v21.417h43.324V.555H.883V21.97zM22.895 40.97H5.056l17.839-17.637V40.97zm18.864 0h-16.42V20.916L41.76 4.683v36.286zM3.327 2.973H40.03L23.612 18.861H3.327V2.973zm0 18.651h17.839L3.327 39.26V21.624zm83.769 8.453c-.478.882-1.11 1.576-1.892 2.082-.78.505-1.73.844-2.848 1.018-1.117.175-2.408.26-3.877.26-1.724 0-3.224-.134-4.5-.401-1.276-.27-2.344-.805-3.206-1.61-.863-.805-1.5-1.947-1.916-3.43-.413-1.484-.62-3.44-.62-5.87 0-2.524.207-4.543.62-6.056.415-1.515 1.053-2.668 1.916-3.454.862-.79 1.93-1.301 3.206-1.54 1.276-.235 2.776-.353 4.5-.353 1.467 0 2.743.079 3.83.237 1.084.158 2.01.464 2.775.923.767.456 1.38 1.103 1.843 1.938.464.837.79 1.933.983 3.29h6.7c-.223-2.272-.719-4.173-1.483-5.702-.766-1.53-1.811-2.77-3.137-3.715-1.324-.946-2.935-1.625-4.832-2.035-1.9-.409-4.124-.614-6.679-.614-2.712 0-5.114.244-7.205.734-2.09.487-3.844 1.373-5.265 2.65-1.42 1.277-2.497 3.02-3.23 5.227-.736 2.209-1.101 5.033-1.101 8.472 0 3.312.344 6.058 1.028 8.234.686 2.177 1.731 3.911 3.137 5.204 1.403 1.295 3.158 2.209 5.265 2.746 2.105.534 4.563.803 7.371.803 2.648 0 4.937-.22 6.868-.663 1.93-.441 3.557-1.151 4.882-2.13 1.323-.977 2.361-2.27 3.111-3.88.75-1.608 1.237-3.564 1.46-5.867h-6.698c-.19 1.45-.527 2.617-1.006 3.502zm34.368-8.187v-.427c1.788-.41 3.232-1.176 4.333-2.294 1.099-1.12 1.65-2.627 1.65-4.52 0-3.217-.863-5.506-2.586-6.862-1.722-1.358-4.531-2.034-8.424-2.034H99.063v32.651h18.045c3.798 0 6.621-.733 8.472-2.2 1.852-1.467 2.776-3.809 2.776-7.027 0-1.986-.55-3.62-1.651-4.897-1.102-1.28-2.849-2.074-5.241-2.39zm-15.891-10.6h9.812c2.074 0 3.516.26 4.331.782.814.52 1.221 1.568 1.221 3.146 0 1.61-.454 2.73-1.365 3.36-.907.63-2.272.945-4.09.945h-9.909V11.29zm14.813 20.654c-.973.614-2.417.923-4.331.923h-10.484V24.35h10.387c2.203 0 3.734.292 4.595.877.861.582 1.291 1.711 1.291 3.383.002 1.608-.484 2.718-1.458 3.334zm18.645-7.215h19.096V19.24h-19.096v-7.952h19.432V5.755H132.52v32.65h25.991v-5.537h-19.48v-8.14zm47.529-3.03v-.378c1.754-.443 3.183-1.215 4.282-2.319 1.103-1.104 1.652-2.602 1.652-4.494 0-3.06-1.181-5.404-3.542-7.03-2.362-1.623-5.919-2.437-10.674-2.437-2.265 0-4.329.215-6.198.64-1.867.425-3.47 1.127-4.81 2.106-1.339.977-2.369 2.255-3.088 3.833-.717 1.577-1.061 3.518-1.028 5.82h6.508c-.031-1.42.175-2.571.622-3.452.448-.886 1.061-1.563 1.842-2.037.783-.473 1.698-.795 2.753-.97a20.526 20.526 0 013.35-.26c2.584 0 4.5.363 5.744 1.088 1.245.726 1.867 1.8 1.867 3.218 0 .505-.064 1.002-.192 1.492s-.376.93-.741 1.325c-.368.394-.886.718-1.556.97-.671.253-1.563.38-2.682.38h-4.737V24.4h4.93c1.213 0 2.209.094 2.993.283.781.19 1.386.458 1.818.805.431.347.725.79.886 1.325.159.536.239 1.168.239 1.894 0 1.546-.64 2.722-1.914 3.526-1.277.804-3.464 1.207-6.56 1.207a25.01 25.01 0 01-3.589-.236c-1.085-.158-2.035-.48-2.848-.97-.814-.49-1.469-1.185-1.963-2.084-.495-.899-.805-2.09-.933-3.573h-6.605c.128 2.366.566 4.347 1.316 5.94.749 1.594 1.803 2.879 3.159 3.856 1.357.978 2.999 1.68 4.93 2.107 1.93.425 4.141.638 6.629.638 5.136 0 8.918-.843 11.343-2.53 2.425-1.69 3.639-4.156 3.639-7.405 0-2.02-.545-3.684-1.628-4.993-1.083-1.314-2.822-2.143-5.214-2.49zm28.288-15.946h-5.362l-14.933 32.651h7.132l2.346-5.537h16.034l2.297 5.537h7.276l-14.79-32.651zm-8.71 22.24l5.983-14.1 5.888 14.1h-11.871z" fill="#000"/></svg>