<svg width="155" height="22" viewBox="0 0 155 22" fill="none" xmlns="http://www.w3.org/2000/svg">
<path d="M11.9 14.878L6.62604 5.743L1.35199 14.878H3.30798L0 20.608H13.247L9.93903 14.878H11.9Z" fill="#00973D"/>
<path d="M23.188 14.878H25.147L19.873 5.743L14.599 14.878H16.558L13.25 20.608H26.497L23.188 14.878Z" fill="#00973D"/>
<path d="M7.97461 0L13.2486 9.135L18.5226 0H7.97461Z" fill="#77D0F7"/>
<path d="M0.00195312 9.135L5.27594 0H0.00195312V9.135Z" fill="#77D0F7"/>
<path d="M21.2217 0L26.4957 9.135V0H21.2217Z" fill="#77D0F7"/>
<path d="M54.3585 20.575L54.3004 11.408L49.9324 18.76H46.9445L42.5754 11.72V20.571H36.3984V0.460007H41.9724L48.5255 11.178L54.9084 0.460007H60.4824L60.5404 20.575H54.3585Z" fill="#00973D"/>
<path d="M84.1857 0.460007L76.1077 15.604C75.2906 17.2426 74.0814 18.6541 72.5876 19.713C71.239 20.6389 69.6395 21.1302 68.0037 21.121C66.6615 21.1102 65.3341 20.8385 64.0956 20.321L65.6766 15.435C66.3487 15.6379 67.0441 15.7538 67.7457 15.78C68.1858 15.7923 68.6229 15.7037 69.0236 15.521C69.4241 15.3127 69.7738 15.0188 70.0477 14.66L62.3477 0.465004H69.5037L73.4987 8.942L77.6356 0.465004L84.1857 0.460007Z" fill="#00973D"/>
<path d="M100.135 1.37901C101.442 1.93563 102.557 2.86443 103.341 4.04985C104.125 5.23526 104.542 6.62495 104.542 8.04601C104.542 9.46707 104.125 10.8568 103.341 12.0422C102.557 13.2276 101.442 14.1564 100.135 14.713C98.5981 15.3568 96.9433 15.6703 95.2777 15.633H92.3777V20.575H85.5967V0.46001H95.2807C96.9452 0.422824 98.599 0.735925 100.135 1.37901ZM96.9157 9.77901C97.3583 9.30832 97.6046 8.68657 97.6046 8.04051C97.6046 7.39444 97.3583 6.7727 96.9157 6.30201C96.3255 5.84867 95.5888 5.62899 94.8467 5.68501H92.3747V10.398H94.8467C95.5885 10.4558 96.3255 10.2371 96.9157 9.78401V9.77901Z" fill="#00973D"/>
<path d="M111.169 19.684C109.486 18.8164 108.074 17.502 107.088 15.885C106.102 14.268 105.581 12.4108 105.581 10.517C105.581 8.62323 106.102 6.76602 107.088 5.14901C108.074 3.532 109.486 2.21763 111.169 1.35001C112.986 0.461773 114.981 4.57764e-05 117.003 4.57764e-05C119.025 4.57764e-05 121.02 0.461773 122.836 1.35001C124.52 2.21738 125.932 3.53166 126.918 5.1487C127.904 6.76575 128.426 8.62309 128.426 10.517C128.426 12.4109 127.904 14.2683 126.918 15.8853C125.932 17.5023 124.52 18.8166 122.836 19.684C121.02 20.5729 119.025 21.035 117.003 21.035C114.981 21.035 112.985 20.5729 111.169 19.684ZM119.287 14.928C119.979 14.504 120.541 13.8975 120.911 13.175C121.309 12.3453 121.515 11.437 121.515 10.517C121.515 9.59698 121.309 8.68867 120.911 7.859C120.54 7.13712 119.979 6.53078 119.287 6.106C118.594 5.70193 117.805 5.48904 117.003 5.48904C116.2 5.48904 115.412 5.70193 114.718 6.106C114.027 6.53078 113.465 7.13712 113.094 7.859C112.697 8.68886 112.491 9.5971 112.491 10.517C112.491 11.4369 112.697 12.3451 113.094 13.175C113.464 13.8975 114.026 14.504 114.718 14.928C115.411 15.3328 116.2 15.5461 117.003 15.5461C117.805 15.5461 118.594 15.3328 119.287 14.928Z" fill="#00973D"/>
<path d="M148.757 20.575L148.699 11.408L144.331 18.76H141.342L136.974 11.72V20.571H130.796V0.460007H136.371L142.923 11.178L149.303 0.460007H154.877L154.934 20.575H148.757Z" fill="#00973D"/>
</svg>
